C:\Users\r0593348\3dpredictsim\Results\Batchsim_tmt_linear\Pog_s1_tmt_aCst_d05_k500_ig24_act_GRF.mot
nRows=30
nColumns=19

name C:\Users\r0593348\3dpredictsim\Results\Batchsim_tmt_linear\Pog_s1_tmt_aCst_d05_k500_ig24_act_GRF.mot
datacolumns 19
datarows 30
range 0.0000000000 0.3540731685
endheader
time 	ground_force_vx	ground_force_vy	ground_force_vz	ground_force_px	ground_force_py	ground_force_pz	1_ground_force_vx	1_ground_force_vy	1_ground_force_vz	1_ground_force_px	1_ground_force_py	1_ground_force_pz	ground_torque_x	ground_torque_y	ground_torque_z	1_ground_torque_x	1_ground_torque_y	1_ground_torque_z
        0.0000000000	      -30.4605125835	       22.1501638577	        7.4562387319	        0.1824880017	        0.0000000000	        0.0543296729	      107.4878945065	      443.6949826819	       -1.7439734753	       -0.3549524835	        0.0000000000	       -0.0307987071	        0.0000000000	        0.0000000000	        0.0000000000	        0.0000000000	        0.0000000000	        0.0000000000	
        0.0122094196	      -84.2303354095	       75.3901005517	       28.1829784977	        0.1929419380	        0.0000000000	        0.0516672241	       81.2262746313	      349.0210255785	       -6.2911515589	       -0.3479096320	        0.0000000000	       -0.0279827421	        0.0000000000	        0.0000000000	        0.0000000000	        0.0000000000	        0.0000000000	        0.0000000000	
        0.0244188392	     -100.4137097145	      204.7108676026	       55.8135796637	        0.1993935809	        0.0000000000	        0.0500221738	       49.2350037154	      246.3311386874	      -15.8920055580	       -0.3364055952	        0.0000000000	       -0.0229793109	        0.0000000000	        0.0000000000	        0.0000000000	        0.0000000000	        0.0000000000	        0.0000000000	
        0.0366282588	      -61.5276863557	      426.7401044737	        7.2608265402	        0.2040040615	        0.0000000000	        0.0487992249	       29.9736886365	      189.0106356849	      -18.5419809612	       -0.3275712356	        0.0000000000	       -0.0184103648	        0.0000000000	        0.0000000000	        0.0000000000	        0.0000000000	        0.0000000000	        0.0000000000	
        0.0488376784	      -84.0547675114	      676.2774017804	      -15.1572032596	        0.2132764573	        0.0000000000	        0.0503606668	       28.4499022386	      151.9276095693	      -13.8460035488	       -0.3273433396	        0.0000000000	       -0.0182614912	        0.0000000000	        0.0000000000	        0.0000000000	        0.0000000000	        0.0000000000	        0.0000000000	
        0.0610470980	     -126.7587469318	      861.6804995931	      -22.2357313688	        0.2222017376	        0.0000000000	        0.0522611340	       17.1744553533	      102.2140861211	      -13.3968017733	       -0.3273107231	        0.0000000000	       -0.0184307297	        0.0000000000	        0.0000000000	        0.0000000000	        0.0000000000	        0.0000000000	        0.0000000000	
        0.0732565176	     -142.6763156401	      913.9121874633	      -22.1683157183	        0.2277548930	        0.0000000000	        0.0533140646	        2.9103432655	       40.0045805960	       -8.7619604859	       -0.3276242813	        0.0000000000	       -0.0187840530	        0.0000000000	        0.0000000000	        0.0000000000	        0.0000000000	        0.0000000000	        0.0000000000	
        0.0854659372	     -134.7638778690	      897.7126163334	      -21.4285449648	        0.2318066498	        0.0000000000	        0.0538349430	        0.2752022740	       -0.2795705835	        0.0171126745	        0.0000000000	        0.0000000000	        0.0000000000	        0.0000000000	        0.0000000000	        0.0000000000	        0.0000000000	        0.0000000000	        0.0000000000	
        0.0976753568	     -118.7927011175	      851.2588357245	      -21.1061548972	        0.2360111491	        0.0000000000	        0.0539592670	        0.0061130500	       -0.0048348477	       -0.0003099277	        0.0000000000	        0.0000000000	        0.0000000000	        0.0000000000	        0.0000000000	        0.0000000000	        0.0000000000	        0.0000000000	        0.0000000000	
        0.1098847764	     -103.7949885909	      799.0742911763	      -20.1722578507	        0.2407420252	        0.0000000000	        0.0537965898	        0.0886002377	       -0.0599321779	       -0.0061940707	        0.0000000000	        0.0000000000	        0.0000000000	        0.0000000000	        0.0000000000	        0.0000000000	        0.0000000000	        0.0000000000	        0.0000000000	
        0.1220941961	      -93.3976624786	      757.9465078481	      -19.3076896495	        0.2464889271	        0.0000000000	        0.0533685535	       -0.8066138055	        0.4851261704	        0.0627411760	        0.0000000000	        0.0000000000	        0.0000000000	        0.0000000000	        0.0000000000	        0.0000000000	        0.0000000000	        0.0000000000	        0.0000000000	
        0.1343036157	      -83.9095332866	      724.6185878949	      -19.6298708562	        0.2523117934	        0.0000000000	        0.0527854340	       -1.1225461917	        0.6220410622	        0.0923364292	        0.0000000000	        0.0000000000	        0.0000000000	        0.0000000000	        0.0000000000	        0.0000000000	        0.0000000000	        0.0000000000	        0.0000000000	
        0.1465130353	      -73.4969238974	      693.9620638615	      -19.6374612572	        0.2576515279	        0.0000000000	        0.0523011506	       -0.7896545416	        0.4133080192	        0.0634091743	        0.0000000000	        0.0000000000	        0.0000000000	        0.0000000000	        0.0000000000	        0.0000000000	        0.0000000000	        0.0000000000	        0.0000000000	
        0.1587224549	      -63.9420682470	      667.0706055642	      -20.3095566469	        0.2627642580	        0.0000000000	        0.0518972996	       -0.5235156617	        0.2617843172	        0.0420785065	        0.0000000000	        0.0000000000	        0.0000000000	        0.0000000000	        0.0000000000	        0.0000000000	        0.0000000000	        0.0000000000	        0.0000000000	
        0.1709318745	      -55.3448636441	      644.8039512404	      -20.7400199698	        0.2677743851	        0.0000000000	        0.0515589788	       -0.3840828153	        0.1850263234	        0.0309245914	        0.0000000000	        0.0000000000	        0.0000000000	        0.0000000000	        0.0000000000	        0.0000000000	        0.0000000000	        0.0000000000	        0.0000000000	
        0.1831412941	      -47.2847917727	      627.4197001402	      -21.3366518752	        0.2732454533	        0.0000000000	        0.0511933151	       -0.3234138119	        0.1511589214	        0.0261513314	        0.0000000000	        0.0000000000	        0.0000000000	        0.0000000000	        0.0000000000	        0.0000000000	        0.0000000000	        0.0000000000	        0.0000000000	
        0.1953507137	      -41.0301251856	      614.7227005332	      -21.7473054629	        0.2795267636	        0.0000000000	        0.0507145700	       -0.3088736369	        0.1407338609	        0.0250617963	        0.0000000000	        0.0000000000	        0.0000000000	        0.0000000000	        0.0000000000	        0.0000000000	        0.0000000000	        0.0000000000	        0.0000000000	
        0.2075601333	      -36.4806163719	      606.0841378088	      -21.8157446010	        0.2863830962	        0.0000000000	        0.0501098624	       -0.3258148921	        0.1452230413	        0.0264676443	        0.0000000000	        0.0000000000	        0.0000000000	        0.0000000000	        0.0000000000	        0.0000000000	        0.0000000000	        0.0000000000	        0.0000000000	
        0.2197695529	      -32.8203878538	      600.8342115738	      -21.2965788273	        0.2935489902	        0.0000000000	        0.0494023163	       -0.3718054966	        0.1624342815	        0.0301128183	        0.0000000000	        0.0000000000	        0.0000000000	        0.0000000000	        0.0000000000	        0.0000000000	        0.0000000000	        0.0000000000	        0.0000000000	
        0.2319789725	      -29.7606923208	      597.7456706394	      -19.9218326454	        0.3007675496	        0.0000000000	        0.0486340746	       -0.4537607643	        0.1944609199	        0.0361886466	        0.0000000000	        0.0000000000	        0.0000000000	        0.0000000000	        0.0000000000	        0.0000000000	        0.0000000000	        0.0000000000	        0.0000000000	
        0.2441883921	      -26.9877160217	      595.2137823113	      -18.6775375552	        0.3078423186	        0.0000000000	        0.0478339926	       -0.5772742255	        0.2429856024	        0.0445693640	        0.0000000000	        0.0000000000	        0.0000000000	        0.0000000000	        0.0000000000	        0.0000000000	        0.0000000000	        0.0000000000	        0.0000000000	
        0.2563978117	      -24.1471511594	      592.2228916286	      -17.7327240741	        0.3146623475	        0.0000000000	        0.0470283168	       -0.7434053360	        0.3078509832	        0.0548257983	        0.0000000000	        0.0000000000	        0.0000000000	        0.0000000000	        0.0000000000	        0.0000000000	        0.0000000000	        0.0000000000	        0.0000000000	
        0.2686072313	      -21.2362757636	      588.5840168825	      -17.2615846123	        0.3212762593	        0.0000000000	        0.0462142519	       -0.9442970759	        0.3854382492	        0.0661026137	        0.0000000000	        0.0000000000	        0.0000000000	        0.0000000000	        0.0000000000	        0.0000000000	        0.0000000000	        0.0000000000	        0.0000000000	
        0.2808166509	      -18.3651233261	      583.7396553470	      -17.0468357514	        0.3276715858	        0.0000000000	        0.0454023441	       -1.1626100793	        0.4686520478	        0.0774115924	        0.0000000000	        0.0000000000	        0.0000000000	        0.0000000000	        0.0000000000	        0.0000000000	        0.0000000000	        0.0000000000	        0.0000000000	
        0.2930260705	      -15.3244297023	      578.3845779346	      -17.0112386369	        0.3339054975	        0.0000000000	        0.0445870772	       -1.3712870944	        0.5469614181	        0.0870270527	        0.0000000000	        0.0000000000	        0.0000000000	        0.0000000000	        0.0000000000	        0.0000000000	        0.0000000000	        0.0000000000	        0.0000000000	
        0.3052354901	      -12.1151076154	      572.1380041572	      -16.8033262162	        0.3399296508	        0.0000000000	        0.0437806089	       -1.5477351396	        0.6119522274	        0.0935876069	        0.0000000000	        0.0000000000	        0.0000000000	        0.0000000000	        0.0000000000	        0.0000000000	        0.0000000000	        0.0000000000	        0.0000000000	
        0.3174449097	       -8.5775949382	      565.7700146005	      -16.2321011545	        0.3457996942	        0.0000000000	        0.0429720100	       -1.6929918577	        0.6643113499	        0.0965376939	        0.0000000000	        0.0000000000	        0.0000000000	        0.0000000000	        0.0000000000	        0.0000000000	        0.0000000000	        0.0000000000	        0.0000000000	
        0.3296543293	       -4.9564590363	      560.9587413120	      -15.1029372999	        0.3515870148	        0.0000000000	        0.0421408947	       -1.8378051035	        0.7160166437	        0.0968186829	        0.0000000000	        0.0000000000	        0.0000000000	        0.0000000000	        0.0000000000	        0.0000000000	        0.0000000000	        0.0000000000	        0.0000000000	
        0.3418637489	       -1.5060981056	      558.6167585385	      -13.4362506646	        0.3571644818	        0.0000000000	        0.0413036284	       -1.9854256811	        0.7686539179	        0.0929314284	        0.0000000000	        0.0000000000	        0.0000000000	        0.0000000000	        0.0000000000	        0.0000000000	        0.0000000000	        0.0000000000	        0.0000000000	
        0.3540731685	        1.8543928515	      559.6666951171	      -11.7388550817	        0.3623361890	        0.0000000000	        0.0404847135	       -2.0979719078	        0.8081899231	        0.0822665813	        0.0000000000	        0.0000000000	        0.0000000000	        0.0000000000	        0.0000000000	        0.0000000000	        0.0000000000	        0.0000000000	        0.0000000000	
